<svg width="110" height="61" viewBox="0 0 110 61" fill="none" xmlns="http://www.w3.org/2000/svg">
<g clip-path="url(#clip0_1219_10309)">
<path d="M46.858 5.82653C50.6025 11.0366 49.4142 18.2961 44.2042 22.0401L19.3865 39.8761C14.1764 43.6201 6.91688 42.4323 3.17235 37.2217C-0.571623 32.0116 0.616668 24.7521 5.82674 21.0082L30.6445 3.17214C35.8545 -0.571837 43.1135 0.616454 46.858 5.82653Z" fill="#4285F4" stroke="#1E1E1E" stroke-width="2"/>
<path d="M3.17227 23.6659C-0.571711 28.876 0.616026 36.1355 5.82665 39.88L30.6444 57.7154C35.8544 61.46 43.1134 60.2717 46.8579 55.0611C50.6024 49.851 49.4142 42.592 44.2041 38.8475L19.3864 21.0115C14.1763 17.2675 6.9168 18.4558 3.17227 23.6659Z" fill="#58CAFF" stroke="#1E1E1E" stroke-width="2"/>
<path d="M106.827 23.6659C110.571 28.876 109.383 36.1355 104.173 39.88L79.355 57.7154C74.1449 61.46 66.8854 60.2717 63.1409 55.0611C59.3969 49.851 60.5852 42.592 65.7952 38.8475L90.613 21.0115C95.823 17.2675 103.082 18.4558 106.827 23.6659Z" fill="#4285F4" stroke="#1E1E1E" stroke-width="2"/>
<path d="M63.1413 5.82653C59.3968 11.0366 60.5845 18.2961 65.7952 22.0401L90.6129 39.8761C95.8229 43.6201 103.082 42.4318 106.826 37.2217C110.571 32.0116 109.383 24.7521 104.173 21.0082L79.3549 3.17214C74.1448 -0.571837 66.8853 0.616454 63.1413 5.82653Z" fill="#58CAFF" stroke="#1E1E1E" stroke-width="2"/>
</g>
<defs>
<clipPath id="clip0_1219_10309">
<rect width="110" height="60.888" fill="white"/>
</clipPath>
</defs>
</svg>
