<svg width="535" height="77" viewBox="0 0 535 77" fill="none" xmlns="http://www.w3.org/2000/svg">
<g clip-path="url(#clip0_1219_10327)">
<path d="M46.8579 13.8825C50.6025 19.0926 49.4142 26.3521 44.2041 30.0961L19.3864 47.9321C14.1763 51.6761 6.91682 50.4883 3.17229 45.2777C-0.571684 40.0676 0.616607 32.8081 5.82668 29.0642L30.6444 11.2281C35.8545 7.48416 43.1134 8.67245 46.8579 13.8825Z" fill="#EA4336" stroke="#1E1E1E" stroke-width="2"/>
<path d="M3.17227 31.7219C-0.571711 36.932 0.616026 44.1915 5.82665 47.936L30.6444 65.7714C35.8544 69.516 43.1134 68.3277 46.8579 63.1171C50.6024 57.907 49.4142 50.648 44.2041 46.9035L19.3864 29.0675C14.1763 25.3235 6.9168 26.5118 3.17227 31.7219Z" fill="#4285F4" stroke="#1E1E1E" stroke-width="2"/>
<path d="M106.826 31.7219C110.571 36.932 109.383 44.1915 104.173 47.936L79.3549 65.7714C74.1448 69.516 66.8853 68.3277 63.1408 63.1171C59.3968 57.907 60.5851 50.648 65.7952 46.9035L90.6129 29.0675C95.823 25.3235 103.082 26.5118 106.826 31.7219Z" fill="#FAAB00" stroke="#1E1E1E" stroke-width="2"/>
<path d="M63.1413 13.8825C59.3968 19.0926 60.5845 26.3521 65.7952 30.0961L90.6129 47.9321C95.8229 51.6761 103.082 50.4878 106.826 45.2777C110.571 40.0676 109.383 32.8081 104.173 29.0642L79.3549 11.2281C74.1448 7.48416 66.8853 8.67245 63.1413 13.8825Z" fill="#34A853" stroke="#1E1E1E" stroke-width="2"/>
</g>
<g clip-path="url(#clip1_1219_10327)">
<path d="M140.976 35.576C138.552 35.576 136.32 34.988 134.28 33.812C132.24 32.636 130.62 31.016 129.42 28.952C128.22 26.888 127.62 24.608 127.62 22.112C127.62 19.616 128.22 17.336 129.42 15.272C130.62 13.208 132.24 11.588 134.28 10.412C136.32 9.236 138.552 8.648 140.976 8.648C142.872 8.648 144.648 8.984 146.304 9.656C147.984 10.328 149.364 11.276 150.444 12.5L148.248 14.696C147.432 13.688 146.388 12.92 145.116 12.392C143.844 11.84 142.476 11.564 141.012 11.564C139.188 11.564 137.484 12.008 135.9 12.896C134.34 13.76 133.08 14.996 132.12 16.604C131.184 18.188 130.716 20.024 130.716 22.112C130.716 24.2 131.184 26.048 132.12 27.656C133.08 29.24 134.352 30.476 135.936 31.364C137.52 32.228 139.212 32.66 141.012 32.66C142.74 32.66 144.18 32.396 145.332 31.868C146.508 31.316 147.516 30.596 148.356 29.708C148.98 29.036 149.484 28.232 149.868 27.296C150.252 26.336 150.492 25.28 150.588 24.128H141.048V21.284H153.432C153.552 21.956 153.612 22.58 153.612 23.156C153.612 24.74 153.36 26.288 152.856 27.8C152.352 29.288 151.548 30.596 150.444 31.724C148.068 34.292 144.912 35.576 140.976 35.576ZM165.837 35.576C164.037 35.576 162.417 35.144 160.977 34.28C159.537 33.416 158.409 32.24 157.593 30.752C156.801 29.264 156.405 27.62 156.405 25.82C156.405 24.02 156.801 22.376 157.593 20.888C158.409 19.4 159.537 18.224 160.977 17.36C162.417 16.496 164.037 16.064 165.837 16.064C167.637 16.064 169.257 16.496 170.697 17.36C172.137 18.224 173.253 19.4 174.045 20.888C174.861 22.376 175.269 24.02 175.269 25.82C175.269 27.62 174.861 29.264 174.045 30.752C173.253 32.24 172.137 33.416 170.697 34.28C169.257 35.144 167.637 35.576 165.837 35.576ZM165.837 32.804C166.965 32.804 168.009 32.528 168.969 31.976C169.953 31.4 170.733 30.584 171.309 29.528C171.909 28.472 172.209 27.236 172.209 25.82C172.209 24.404 171.909 23.168 171.309 22.112C170.733 21.056 169.953 20.252 168.969 19.7C168.009 19.124 166.965 18.836 165.837 18.836C164.709 18.836 163.653 19.124 162.669 19.7C161.685 20.252 160.893 21.056 160.293 22.112C159.717 23.168 159.429 24.404 159.429 25.82C159.429 27.236 159.717 28.472 160.293 29.528C160.893 30.584 161.685 31.4 162.669 31.976C163.653 32.528 164.709 32.804 165.837 32.804ZM187.283 35.576C185.483 35.576 183.863 35.144 182.423 34.28C180.983 33.416 179.855 32.24 179.039 30.752C178.247 29.264 177.851 27.62 177.851 25.82C177.851 24.02 178.247 22.376 179.039 20.888C179.855 19.4 180.983 18.224 182.423 17.36C183.863 16.496 185.483 16.064 187.283 16.064C189.083 16.064 190.703 16.496 192.143 17.36C193.583 18.224 194.699 19.4 195.491 20.888C196.307 22.376 196.715 24.02 196.715 25.82C196.715 27.62 196.307 29.264 195.491 30.752C194.699 32.24 193.583 33.416 192.143 34.28C190.703 35.144 189.083 35.576 187.283 35.576ZM187.283 32.804C188.411 32.804 189.455 32.528 190.415 31.976C191.399 31.4 192.179 30.584 192.755 29.528C193.355 28.472 193.655 27.236 193.655 25.82C193.655 24.404 193.355 23.168 192.755 22.112C192.179 21.056 191.399 20.252 190.415 19.7C189.455 19.124 188.411 18.836 187.283 18.836C186.155 18.836 185.099 19.124 184.115 19.7C183.131 20.252 182.339 21.056 181.739 22.112C181.163 23.168 180.875 24.404 180.875 25.82C180.875 27.236 181.163 28.472 181.739 29.528C182.339 30.584 183.131 31.4 184.115 31.976C185.099 32.528 186.155 32.804 187.283 32.804ZM208.332 43.352C206.172 43.352 204.384 42.848 202.968 41.84C201.576 40.832 200.64 39.62 200.16 38.204L202.932 37.016C203.34 38.072 204.012 38.924 204.948 39.572C205.908 40.244 207.036 40.58 208.332 40.58C210.228 40.58 211.692 40.028 212.724 38.924C213.78 37.82 214.308 36.26 214.308 34.244V32.192H214.164C213.564 33.128 212.712 33.896 211.608 34.496C210.528 35.072 209.292 35.36 207.9 35.36C206.316 35.36 204.864 34.952 203.544 34.136C202.248 33.32 201.216 32.18 200.448 30.716C199.68 29.252 199.296 27.584 199.296 25.712C199.296 23.864 199.68 22.208 200.448 20.744C201.216 19.256 202.248 18.104 203.544 17.288C204.864 16.472 206.316 16.064 207.9 16.064C209.292 16.064 210.528 16.364 211.608 16.964C212.712 17.54 213.564 18.308 214.164 19.268H214.308V16.64H217.224V34.28C217.224 37.232 216.408 39.476 214.776 41.012C213.144 42.572 210.996 43.352 208.332 43.352ZM208.332 32.588C209.436 32.588 210.432 32.312 211.32 31.76C212.232 31.208 212.952 30.416 213.48 29.384C214.032 28.352 214.308 27.128 214.308 25.712C214.308 24.272 214.032 23.036 213.48 22.004C212.952 20.972 212.232 20.192 211.32 19.664C210.432 19.112 209.436 18.836 208.332 18.836C207.228 18.836 206.22 19.112 205.308 19.664C204.396 20.216 203.664 21.008 203.112 22.04C202.584 23.072 202.32 24.296 202.32 25.712C202.32 27.128 202.584 28.364 203.112 29.42C203.664 30.452 204.396 31.244 205.308 31.796C206.22 32.324 207.228 32.588 208.332 32.588ZM221.748 9.224H224.808V35H221.748V9.224ZM237.338 35.576C235.586 35.576 234.014 35.156 232.622 34.316C231.23 33.476 230.138 32.324 229.346 30.86C228.578 29.372 228.194 27.704 228.194 25.856C228.194 24.08 228.554 22.448 229.274 20.96C230.018 19.472 231.062 18.284 232.406 17.396C233.75 16.508 235.31 16.064 237.086 16.064C238.886 16.064 240.446 16.472 241.766 17.288C243.086 18.08 244.094 19.184 244.79 20.6C245.51 22.016 245.87 23.636 245.87 25.46C245.87 25.82 245.834 26.132 245.762 26.396H231.254C231.326 27.788 231.662 28.964 232.262 29.924C232.862 30.884 233.618 31.604 234.53 32.084C235.466 32.564 236.438 32.804 237.446 32.804C239.798 32.804 241.61 31.7 242.882 29.492L245.474 30.752C244.682 32.24 243.602 33.416 242.234 34.28C240.89 35.144 239.258 35.576 237.338 35.576ZM242.63 23.876C242.582 23.108 242.366 22.34 241.982 21.572C241.598 20.804 240.986 20.156 240.146 19.628C239.33 19.1 238.298 18.836 237.05 18.836C235.61 18.836 234.386 19.304 233.378 20.24C232.394 21.152 231.746 22.364 231.434 23.876H242.63ZM258.431 9.224H266.207C268.847 9.224 271.151 9.776 273.119 10.88C275.087 11.96 276.599 13.472 277.655 15.416C278.711 17.36 279.239 19.592 279.239 22.112C279.239 24.632 278.711 26.864 277.655 28.808C276.599 30.752 275.087 32.276 273.119 33.38C271.151 34.46 268.847 35 266.207 35H258.431V9.224ZM266.207 32.084C269.255 32.084 271.667 31.208 273.443 29.456C275.243 27.704 276.143 25.256 276.143 22.112C276.143 18.968 275.243 16.52 273.443 14.768C271.667 13.016 269.255 12.14 266.207 12.14H261.455V32.084H266.207ZM290.776 35.576C289.024 35.576 287.452 35.156 286.06 34.316C284.668 33.476 283.576 32.324 282.784 30.86C282.016 29.372 281.632 27.704 281.632 25.856C281.632 24.08 281.992 22.448 282.712 20.96C283.456 19.472 284.5 18.284 285.844 17.396C287.188 16.508 288.748 16.064 290.524 16.064C292.324 16.064 293.884 16.472 295.204 17.288C296.524 18.08 297.532 19.184 298.228 20.6C298.948 22.016 299.308 23.636 299.308 25.46C299.308 25.82 299.272 26.132 299.2 26.396H284.692C284.764 27.788 285.1 28.964 285.7 29.924C286.3 30.884 287.056 31.604 287.968 32.084C288.904 32.564 289.876 32.804 290.884 32.804C293.236 32.804 295.048 31.7 296.32 29.492L298.912 30.752C298.12 32.24 297.04 33.416 295.672 34.28C294.328 35.144 292.696 35.576 290.776 35.576ZM296.068 23.876C296.02 23.108 295.804 22.34 295.42 21.572C295.036 20.804 294.424 20.156 293.584 19.628C292.768 19.1 291.736 18.836 290.488 18.836C289.048 18.836 287.824 19.304 286.816 20.24C285.832 21.152 285.184 22.364 284.872 23.876H296.068ZM300.522 16.64H303.798L309.486 31.4H309.558L315.318 16.64H318.522L311.034 35H307.938L300.522 16.64ZM328.674 35.576C326.922 35.576 325.35 35.156 323.958 34.316C322.566 33.476 321.474 32.324 320.682 30.86C319.914 29.372 319.53 27.704 319.53 25.856C319.53 24.08 319.89 22.448 320.61 20.96C321.354 19.472 322.398 18.284 323.742 17.396C325.086 16.508 326.646 16.064 328.422 16.064C330.222 16.064 331.782 16.472 333.102 17.288C334.422 18.08 335.43 19.184 336.126 20.6C336.846 22.016 337.206 23.636 337.206 25.46C337.206 25.82 337.17 26.132 337.098 26.396H322.59C322.662 27.788 322.998 28.964 323.598 29.924C324.198 30.884 324.954 31.604 325.866 32.084C326.802 32.564 327.774 32.804 328.782 32.804C331.134 32.804 332.946 31.7 334.218 29.492L336.81 30.752C336.018 32.24 334.938 33.416 333.57 34.28C332.226 35.144 330.594 35.576 328.674 35.576ZM333.966 23.876C333.918 23.108 333.702 22.34 333.318 21.572C332.934 20.804 332.322 20.156 331.482 19.628C330.666 19.1 329.634 18.836 328.386 18.836C326.946 18.836 325.722 19.304 324.714 20.24C323.73 21.152 323.082 22.364 322.77 23.876H333.966ZM340.788 9.224H343.848V35H340.788V9.224ZM356.666 35.576C354.866 35.576 353.246 35.144 351.806 34.28C350.366 33.416 349.238 32.24 348.422 30.752C347.63 29.264 347.234 27.62 347.234 25.82C347.234 24.02 347.63 22.376 348.422 20.888C349.238 19.4 350.366 18.224 351.806 17.36C353.246 16.496 354.866 16.064 356.666 16.064C358.466 16.064 360.086 16.496 361.526 17.36C362.966 18.224 364.082 19.4 364.874 20.888C365.69 22.376 366.098 24.02 366.098 25.82C366.098 27.62 365.69 29.264 364.874 30.752C364.082 32.24 362.966 33.416 361.526 34.28C360.086 35.144 358.466 35.576 356.666 35.576ZM356.666 32.804C357.794 32.804 358.838 32.528 359.798 31.976C360.782 31.4 361.562 30.584 362.138 29.528C362.738 28.472 363.038 27.236 363.038 25.82C363.038 24.404 362.738 23.168 362.138 22.112C361.562 21.056 360.782 20.252 359.798 19.7C358.838 19.124 357.794 18.836 356.666 18.836C355.538 18.836 354.482 19.124 353.498 19.7C352.514 20.252 351.722 21.056 351.122 22.112C350.546 23.168 350.258 24.404 350.258 25.82C350.258 27.236 350.546 28.472 351.122 29.528C351.722 30.584 352.514 31.4 353.498 31.976C354.482 32.528 355.538 32.804 356.666 32.804ZM369.331 16.64H372.247V19.376H372.391C372.943 18.44 373.771 17.66 374.875 17.036C376.003 16.388 377.263 16.064 378.655 16.064C380.287 16.064 381.775 16.484 383.119 17.324C384.463 18.164 385.519 19.328 386.287 20.816C387.055 22.304 387.439 23.972 387.439 25.82C387.439 27.692 387.055 29.372 386.287 30.86C385.519 32.324 384.463 33.476 383.119 34.316C381.775 35.156 380.287 35.576 378.655 35.576C377.263 35.576 376.003 35.264 374.875 34.64C373.771 33.992 372.943 33.212 372.391 32.3H372.247L372.391 34.82V42.776H369.331V16.64ZM378.295 32.804C379.351 32.804 380.347 32.516 381.283 31.94C382.219 31.364 382.963 30.548 383.515 29.492C384.091 28.412 384.379 27.188 384.379 25.82C384.379 24.452 384.091 23.24 383.515 22.184C382.963 21.104 382.219 20.276 381.283 19.7C380.347 19.124 379.351 18.836 378.295 18.836C377.239 18.836 376.243 19.124 375.307 19.7C374.371 20.276 373.627 21.092 373.075 22.148C372.523 23.204 372.247 24.428 372.247 25.82C372.247 27.212 372.523 28.436 373.075 29.492C373.627 30.548 374.371 31.364 375.307 31.94C376.243 32.516 377.239 32.804 378.295 32.804ZM399.163 35.576C397.411 35.576 395.839 35.156 394.447 34.316C393.055 33.476 391.963 32.324 391.171 30.86C390.403 29.372 390.019 27.704 390.019 25.856C390.019 24.08 390.379 22.448 391.099 20.96C391.843 19.472 392.887 18.284 394.231 17.396C395.575 16.508 397.135 16.064 398.911 16.064C400.711 16.064 402.271 16.472 403.591 17.288C404.911 18.08 405.919 19.184 406.615 20.6C407.335 22.016 407.695 23.636 407.695 25.46C407.695 25.82 407.659 26.132 407.587 26.396H393.079C393.151 27.788 393.487 28.964 394.087 29.924C394.687 30.884 395.443 31.604 396.355 32.084C397.291 32.564 398.263 32.804 399.271 32.804C401.623 32.804 403.435 31.7 404.707 29.492L407.299 30.752C406.507 32.24 405.427 33.416 404.059 34.28C402.715 35.144 401.083 35.576 399.163 35.576ZM404.455 23.876C404.407 23.108 404.191 22.34 403.807 21.572C403.423 20.804 402.811 20.156 401.971 19.628C401.155 19.1 400.123 18.836 398.875 18.836C397.435 18.836 396.211 19.304 395.203 20.24C394.219 21.152 393.571 22.364 393.259 23.876H404.455ZM411.276 16.64H414.192V19.592H414.336C414.696 18.584 415.392 17.756 416.424 17.108C417.456 16.436 418.536 16.1 419.664 16.1C420.504 16.1 421.224 16.22 421.824 16.46V19.772C421.056 19.388 420.192 19.196 419.232 19.196C418.344 19.196 417.528 19.448 416.784 19.952C416.04 20.456 415.44 21.14 414.984 22.004C414.552 22.844 414.336 23.756 414.336 24.74V35H411.276V16.64ZM445.148 35.576C442.724 35.576 440.492 34.988 438.452 33.812C436.412 32.636 434.792 31.016 433.592 28.952C432.392 26.888 431.792 24.608 431.792 22.112C431.792 19.616 432.392 17.336 433.592 15.272C434.792 13.208 436.412 11.588 438.452 10.412C440.492 9.236 442.724 8.648 445.148 8.648C447.044 8.648 448.82 8.984 450.476 9.656C452.156 10.328 453.536 11.276 454.616 12.5L452.42 14.696C451.604 13.688 450.56 12.92 449.288 12.392C448.016 11.84 446.648 11.564 445.184 11.564C443.36 11.564 441.656 12.008 440.072 12.896C438.512 13.76 437.252 14.996 436.292 16.604C435.356 18.188 434.888 20.024 434.888 22.112C434.888 24.2 435.356 26.048 436.292 27.656C437.252 29.24 438.524 30.476 440.108 31.364C441.692 32.228 443.384 32.66 445.184 32.66C446.912 32.66 448.352 32.396 449.504 31.868C450.68 31.316 451.688 30.596 452.528 29.708C453.152 29.036 453.656 28.232 454.04 27.296C454.424 26.336 454.664 25.28 454.76 24.128H445.22V21.284H457.604C457.724 21.956 457.784 22.58 457.784 23.156C457.784 24.74 457.532 26.288 457.028 27.8C456.524 29.288 455.72 30.596 454.616 31.724C452.24 34.292 449.084 35.576 445.148 35.576ZM461.022 16.64H463.938V19.592H464.082C464.442 18.584 465.138 17.756 466.17 17.108C467.202 16.436 468.282 16.1 469.41 16.1C470.25 16.1 470.97 16.22 471.57 16.46V19.772C470.802 19.388 469.938 19.196 468.978 19.196C468.09 19.196 467.274 19.448 466.53 19.952C465.786 20.456 465.186 21.14 464.73 22.004C464.298 22.844 464.082 23.756 464.082 24.74V35H461.022V16.64ZM481.892 35.576C480.092 35.576 478.472 35.144 477.032 34.28C475.592 33.416 474.464 32.24 473.648 30.752C472.856 29.264 472.46 27.62 472.46 25.82C472.46 24.02 472.856 22.376 473.648 20.888C474.464 19.4 475.592 18.224 477.032 17.36C478.472 16.496 480.092 16.064 481.892 16.064C483.692 16.064 485.312 16.496 486.752 17.36C488.192 18.224 489.308 19.4 490.1 20.888C490.916 22.376 491.324 24.02 491.324 25.82C491.324 27.62 490.916 29.264 490.1 30.752C489.308 32.24 488.192 33.416 486.752 34.28C485.312 35.144 483.692 35.576 481.892 35.576ZM481.892 32.804C483.02 32.804 484.064 32.528 485.024 31.976C486.008 31.4 486.788 30.584 487.364 29.528C487.964 28.472 488.264 27.236 488.264 25.82C488.264 24.404 487.964 23.168 487.364 22.112C486.788 21.056 486.008 20.252 485.024 19.7C484.064 19.124 483.02 18.836 481.892 18.836C480.764 18.836 479.708 19.124 478.724 19.7C477.74 20.252 476.948 21.056 476.348 22.112C475.772 23.168 475.484 24.404 475.484 25.82C475.484 27.236 475.772 28.472 476.348 29.528C476.948 30.584 477.74 31.4 478.724 31.976C479.708 32.528 480.764 32.804 481.892 32.804ZM501.362 35.576C499.154 35.576 497.462 34.928 496.286 33.632C495.134 32.336 494.558 30.524 494.558 28.196V16.64H497.618V27.728C497.618 29.48 498.014 30.764 498.806 31.58C499.598 32.396 500.666 32.804 502.01 32.804C503.042 32.804 503.954 32.528 504.746 31.976C505.562 31.424 506.186 30.704 506.618 29.816C507.074 28.928 507.302 27.992 507.302 27.008V16.64H510.362V35H507.446V32.336H507.302C506.798 33.248 505.994 34.016 504.89 34.64C503.786 35.264 502.61 35.576 501.362 35.576ZM514.737 16.64H517.653V19.376H517.797C518.349 18.44 519.177 17.66 520.281 17.036C521.409 16.388 522.669 16.064 524.061 16.064C525.693 16.064 527.181 16.484 528.525 17.324C529.869 18.164 530.925 19.328 531.693 20.816C532.461 22.304 532.845 23.972 532.845 25.82C532.845 27.692 532.461 29.372 531.693 30.86C530.925 32.324 529.869 33.476 528.525 34.316C527.181 35.156 525.693 35.576 524.061 35.576C522.669 35.576 521.409 35.264 520.281 34.64C519.177 33.992 518.349 33.212 517.797 32.3H517.653L517.797 34.82V42.776H514.737V16.64ZM523.701 32.804C524.757 32.804 525.753 32.516 526.689 31.94C527.625 31.364 528.369 30.548 528.921 29.492C529.497 28.412 529.785 27.188 529.785 25.82C529.785 24.452 529.497 23.24 528.921 22.184C528.369 21.104 527.625 20.276 526.689 19.7C525.753 19.124 524.757 18.836 523.701 18.836C522.645 18.836 521.649 19.124 520.713 19.7C519.777 20.276 519.033 21.092 518.481 22.148C517.929 23.204 517.653 24.428 517.653 25.82C517.653 27.212 517.929 28.436 518.481 29.492C519.033 30.548 519.777 31.364 520.713 31.94C521.649 32.516 522.645 32.804 523.701 32.804Z" fill="#1E1E1E"/>
<path d="M133.92 69.384C132.688 69.384 131.592 69.104 130.632 68.544C129.672 67.968 128.928 67.176 128.4 66.168C127.872 65.144 127.608 63.968 127.608 62.64V51.816H129.648V62.736C129.648 64.128 130.016 65.264 130.752 66.144C131.488 67.008 132.544 67.44 133.92 67.44C135.296 67.44 136.352 67.008 137.088 66.144C137.84 65.264 138.216 64.128 138.216 62.736V51.816H140.232V62.64C140.232 63.968 139.976 65.144 139.464 66.168C138.968 67.192 138.24 67.984 137.28 68.544C136.336 69.104 135.216 69.384 133.92 69.384ZM143.168 56.76H145.112V58.56H145.208C145.544 57.952 146.08 57.44 146.816 57.024C147.552 56.592 148.336 56.376 149.168 56.376C150.64 56.376 151.76 56.808 152.528 57.672C153.312 58.52 153.704 59.68 153.704 61.152V69H151.664V61.464C151.664 60.328 151.392 59.504 150.848 58.992C150.304 58.48 149.56 58.224 148.616 58.224C147.96 58.224 147.368 58.408 146.84 58.776C146.328 59.144 145.928 59.632 145.64 60.24C145.352 60.832 145.208 61.456 145.208 62.112V69H143.168V56.76ZM157.821 54.504C157.421 54.504 157.077 54.36 156.789 54.072C156.501 53.784 156.357 53.44 156.357 53.04C156.357 52.64 156.501 52.304 156.789 52.032C157.077 51.744 157.421 51.6 157.821 51.6C158.221 51.6 158.565 51.744 158.853 52.032C159.141 52.304 159.285 52.64 159.285 53.04C159.285 53.44 159.141 53.784 158.853 54.072C158.581 54.36 158.237 54.504 157.821 54.504ZM156.813 56.76H158.829V69H156.813V56.76ZM160.691 56.76H162.875L166.667 66.6H166.715L170.555 56.76H172.691L167.699 69H165.635L160.691 56.76ZM179.46 69.384C178.292 69.384 177.244 69.104 176.316 68.544C175.388 67.984 174.66 67.216 174.132 66.24C173.62 65.248 173.364 64.136 173.364 62.904C173.364 61.72 173.604 60.632 174.084 59.64C174.58 58.648 175.276 57.856 176.172 57.264C177.068 56.672 178.108 56.376 179.292 56.376C180.492 56.376 181.532 56.648 182.412 57.192C183.292 57.72 183.964 58.456 184.428 59.4C184.908 60.344 185.148 61.424 185.148 62.64C185.148 62.88 185.124 63.088 185.076 63.264H175.404C175.452 64.192 175.676 64.976 176.076 65.616C176.476 66.256 176.98 66.736 177.588 67.056C178.212 67.376 178.86 67.536 179.532 67.536C181.1 67.536 182.308 66.8 183.156 65.328L184.884 66.168C184.356 67.16 183.636 67.944 182.724 68.52C181.828 69.096 180.74 69.384 179.46 69.384ZM182.988 61.584C182.956 61.072 182.812 60.56 182.556 60.048C182.3 59.536 181.892 59.104 181.332 58.752C180.788 58.4 180.1 58.224 179.268 58.224C178.308 58.224 177.492 58.536 176.82 59.16C176.164 59.768 175.732 60.576 175.524 61.584H182.988ZM187.535 56.76H189.479V58.728H189.575C189.815 58.056 190.279 57.504 190.967 57.072C191.655 56.624 192.375 56.4 193.127 56.4C193.687 56.4 194.167 56.48 194.567 56.64V58.848C194.055 58.592 193.479 58.464 192.839 58.464C192.247 58.464 191.703 58.632 191.207 58.968C190.711 59.304 190.311 59.76 190.007 60.336C189.719 60.896 189.575 61.504 189.575 62.16V69H187.535V56.76ZM200.339 69.384C199.027 69.384 197.931 69.08 197.051 68.472C196.171 67.848 195.547 67.056 195.179 66.096L197.003 65.28C197.307 66.016 197.755 66.584 198.347 66.984C198.955 67.384 199.619 67.584 200.339 67.584C201.107 67.584 201.763 67.432 202.307 67.128C202.851 66.808 203.123 66.36 203.123 65.784C203.123 65.272 202.907 64.864 202.475 64.56C202.043 64.24 201.363 63.968 200.435 63.744L198.947 63.36C197.971 63.12 197.171 62.712 196.547 62.136C195.923 61.56 195.611 60.816 195.611 59.904C195.611 59.2 195.819 58.584 196.235 58.056C196.667 57.512 197.235 57.096 197.939 56.808C198.643 56.52 199.403 56.376 200.219 56.376C201.291 56.376 202.243 56.608 203.075 57.072C203.923 57.536 204.523 58.184 204.875 59.016L203.099 59.832C202.555 58.744 201.587 58.2 200.195 58.2C199.523 58.2 198.931 58.36 198.419 58.68C197.923 58.984 197.675 59.376 197.675 59.856C197.675 60.304 197.851 60.672 198.203 60.96C198.555 61.232 199.083 61.456 199.787 61.632L201.563 62.088C202.763 62.392 203.667 62.848 204.275 63.456C204.883 64.048 205.187 64.776 205.187 65.64C205.187 66.392 204.971 67.056 204.539 67.632C204.107 68.192 203.523 68.624 202.787 68.928C202.051 69.232 201.235 69.384 200.339 69.384ZM208.493 54.504C208.093 54.504 207.749 54.36 207.461 54.072C207.173 53.784 207.029 53.44 207.029 53.04C207.029 52.64 207.173 52.304 207.461 52.032C207.749 51.744 208.093 51.6 208.493 51.6C208.893 51.6 209.237 51.744 209.525 52.032C209.813 52.304 209.957 52.64 209.957 53.04C209.957 53.44 209.813 53.784 209.525 54.072C209.253 54.36 208.909 54.504 208.493 54.504ZM207.485 56.76H209.501V69H207.485V56.76ZM217.294 69.192C216.798 69.192 216.334 69.112 215.902 68.952C215.486 68.792 215.134 68.576 214.846 68.304C214.526 68 214.286 67.648 214.126 67.248C213.966 66.848 213.886 66.36 213.886 65.784V58.608H211.75V56.76H213.886V53.304H215.926V56.76H218.902V58.608H215.926V65.28C215.926 65.952 216.054 66.448 216.31 66.768C216.614 67.12 217.054 67.296 217.63 67.296C218.094 67.296 218.542 67.16 218.974 66.888V68.88C218.734 68.992 218.486 69.072 218.23 69.12C217.99 69.168 217.678 69.192 217.294 69.192ZM225.24 68.232L220.176 56.76H222.384L226.224 65.856H226.272L229.968 56.76H232.176L224.616 74.184H222.504L225.24 68.232ZM245.09 69.384C243.89 69.384 242.81 69.096 241.85 68.52C240.89 67.944 240.138 67.16 239.594 66.168C239.066 65.176 238.802 64.08 238.802 62.88C238.802 61.68 239.066 60.584 239.594 59.592C240.138 58.6 240.89 57.816 241.85 57.24C242.81 56.664 243.89 56.376 245.09 56.376C246.29 56.376 247.37 56.664 248.33 57.24C249.29 57.816 250.034 58.6 250.562 59.592C251.106 60.584 251.378 61.68 251.378 62.88C251.378 64.08 251.106 65.176 250.562 66.168C250.034 67.16 249.29 67.944 248.33 68.52C247.37 69.096 246.29 69.384 245.09 69.384ZM245.09 67.536C245.842 67.536 246.538 67.352 247.178 66.984C247.834 66.6 248.354 66.056 248.738 65.352C249.138 64.648 249.338 63.824 249.338 62.88C249.338 61.936 249.138 61.112 248.738 60.408C248.354 59.704 247.834 59.168 247.178 58.8C246.538 58.416 245.842 58.224 245.09 58.224C244.338 58.224 243.634 58.416 242.978 58.8C242.322 59.168 241.794 59.704 241.394 60.408C241.01 61.112 240.818 61.936 240.818 62.88C240.818 63.824 241.01 64.648 241.394 65.352C241.794 66.056 242.322 66.6 242.978 66.984C243.634 67.352 244.338 67.536 245.09 67.536ZM254.811 58.608H252.555V56.76H254.811V55.44C254.811 54.672 254.987 54 255.339 53.424C255.691 52.848 256.163 52.408 256.755 52.104C257.347 51.784 258.003 51.624 258.723 51.624C259.411 51.624 260.011 51.72 260.523 51.912V53.904C260.235 53.792 259.963 53.704 259.707 53.64C259.451 53.56 259.147 53.52 258.795 53.52C258.267 53.52 257.811 53.712 257.427 54.096C257.043 54.464 256.851 54.984 256.851 55.656V56.76H259.995V58.608H256.851V69H254.811V58.608ZM275.974 69.384C274.326 69.384 272.83 68.984 271.486 68.184C270.142 67.384 269.086 66.304 268.318 64.944C267.55 63.568 267.166 62.056 267.166 60.408C267.166 58.776 267.55 57.272 268.318 55.896C269.086 54.52 270.142 53.432 271.486 52.632C272.83 51.832 274.326 51.432 275.974 51.432C277.622 51.432 279.118 51.832 280.462 52.632C281.806 53.432 282.862 54.52 283.63 55.896C284.414 57.272 284.806 58.776 284.806 60.408C284.806 62.056 284.422 63.568 283.654 64.944C282.886 66.304 281.822 67.384 280.462 68.184C279.118 68.984 277.622 69.384 275.974 69.384ZM275.974 67.44C277.206 67.44 278.334 67.144 279.358 66.552C280.398 65.944 281.214 65.112 281.806 64.056C282.414 62.984 282.718 61.768 282.718 60.408C282.718 59.048 282.414 57.84 281.806 56.784C281.214 55.712 280.398 54.88 279.358 54.288C278.334 53.68 277.206 53.376 275.974 53.376C274.742 53.376 273.614 53.68 272.59 54.288C271.566 54.88 270.75 55.712 270.142 56.784C269.534 57.856 269.23 59.064 269.23 60.408C269.23 61.752 269.534 62.96 270.142 64.032C270.75 65.104 271.566 65.944 272.59 66.552C273.614 67.144 274.742 67.44 275.974 67.44ZM291.675 69.384C290.363 69.384 289.267 69.08 288.387 68.472C287.507 67.848 286.883 67.056 286.515 66.096L288.339 65.28C288.643 66.016 289.091 66.584 289.683 66.984C290.291 67.384 290.955 67.584 291.675 67.584C292.443 67.584 293.099 67.432 293.643 67.128C294.187 66.808 294.459 66.36 294.459 65.784C294.459 65.272 294.243 64.864 293.811 64.56C293.379 64.24 292.699 63.968 291.771 63.744L290.283 63.36C289.307 63.12 288.507 62.712 287.883 62.136C287.259 61.56 286.947 60.816 286.947 59.904C286.947 59.2 287.155 58.584 287.571 58.056C288.003 57.512 288.571 57.096 289.275 56.808C289.979 56.52 290.739 56.376 291.555 56.376C292.627 56.376 293.579 56.608 294.411 57.072C295.259 57.536 295.859 58.184 296.211 59.016L294.435 59.832C293.891 58.744 292.923 58.2 291.531 58.2C290.859 58.2 290.267 58.36 289.755 58.68C289.259 58.984 289.011 59.376 289.011 59.856C289.011 60.304 289.187 60.672 289.539 60.96C289.891 61.232 290.419 61.456 291.123 61.632L292.899 62.088C294.099 62.392 295.003 62.848 295.611 63.456C296.219 64.048 296.523 64.776 296.523 65.64C296.523 66.392 296.307 67.056 295.875 67.632C295.443 68.192 294.859 68.624 294.123 68.928C293.387 69.232 292.571 69.384 291.675 69.384ZM302.776 69.384C301.88 69.384 301.08 69.208 300.376 68.856C299.672 68.504 299.128 68.024 298.744 67.416C298.36 66.792 298.168 66.088 298.168 65.304C298.168 64.008 298.656 63 299.632 62.28C300.608 61.544 301.84 61.176 303.328 61.176C304.064 61.176 304.744 61.256 305.368 61.416C306.008 61.576 306.496 61.76 306.832 61.968V61.224C306.832 60.312 306.512 59.584 305.872 59.04C305.232 58.48 304.424 58.2 303.448 58.2C302.76 58.2 302.128 58.352 301.552 58.656C300.976 58.944 300.52 59.352 300.184 59.88L298.648 58.728C299.128 57.992 299.784 57.416 300.616 57C301.464 56.584 302.4 56.376 303.424 56.376C305.088 56.376 306.392 56.816 307.336 57.696C308.296 58.56 308.776 59.744 308.776 61.248V69H306.832V67.248H306.736C306.384 67.84 305.856 68.344 305.152 68.76C304.448 69.176 303.656 69.384 302.776 69.384ZM302.968 67.584C303.656 67.584 304.296 67.408 304.888 67.056C305.48 66.704 305.952 66.232 306.304 65.64C306.656 65.048 306.832 64.4 306.832 63.696C306.448 63.44 305.976 63.232 305.416 63.072C304.856 62.912 304.264 62.832 303.64 62.832C302.52 62.832 301.672 63.064 301.096 63.528C300.536 63.992 300.256 64.592 300.256 65.328C300.256 66 300.512 66.544 301.024 66.96C301.536 67.376 302.184 67.584 302.968 67.584ZM311.614 51.816H313.654V62.616L319.414 56.76H322.006V56.856L317.206 61.704L322.126 68.904V69H319.702L315.766 63.12L313.654 65.232V69H311.614V51.816ZM327.408 69.384C326.512 69.384 325.712 69.208 325.008 68.856C324.304 68.504 323.76 68.024 323.376 67.416C322.992 66.792 322.8 66.088 322.8 65.304C322.8 64.008 323.288 63 324.264 62.28C325.24 61.544 326.472 61.176 327.96 61.176C328.696 61.176 329.376 61.256 330 61.416C330.64 61.576 331.128 61.76 331.464 61.968V61.224C331.464 60.312 331.144 59.584 330.504 59.04C329.864 58.48 329.056 58.2 328.08 58.2C327.392 58.2 326.76 58.352 326.184 58.656C325.608 58.944 325.152 59.352 324.816 59.88L323.28 58.728C323.76 57.992 324.416 57.416 325.248 57C326.096 56.584 327.032 56.376 328.056 56.376C329.72 56.376 331.024 56.816 331.968 57.696C332.928 58.56 333.408 59.744 333.408 61.248V69H331.464V67.248H331.368C331.016 67.84 330.488 68.344 329.784 68.76C329.08 69.176 328.288 69.384 327.408 69.384ZM327.6 67.584C328.288 67.584 328.928 67.408 329.52 67.056C330.112 66.704 330.584 66.232 330.936 65.64C331.288 65.048 331.464 64.4 331.464 63.696C331.08 63.44 330.608 63.232 330.048 63.072C329.488 62.912 328.896 62.832 328.272 62.832C327.152 62.832 326.304 63.064 325.728 63.528C325.168 63.992 324.888 64.592 324.888 65.328C324.888 66 325.144 66.544 325.656 66.96C326.168 67.376 326.816 67.584 327.6 67.584Z" fill="#4285F4"/>
</g>
<defs>
<clipPath id="clip0_1219_10327">
<rect width="110" height="60.888" fill="white" transform="translate(0 8.056)"/>
</clipPath>
<clipPath id="clip1_1219_10327">
<rect width="409" height="77" fill="white" transform="translate(126)"/>
</clipPath>
</defs>
</svg>
